<?xml version="1.0" standalone="no"?>
<!DOCTYPE svg PUBLIC "-//W3C//DTD SVG 20010904//EN"
 "http://www.w3.org/TR/2001/REC-SVG-20010904/DTD/svg10.dtd">
<svg version="1.0" xmlns="http://www.w3.org/2000/svg"
 width="2211.000000pt" height="673.000000pt" viewBox="0 0 2211.000000 673.000000"
 preserveAspectRatio="xMidYMid meet">

<g transform="translate(0.000000,673.000000) scale(0.100000,-0.100000)"
fill="#000000" stroke="none">
<path d="M20741 4563 c-41 -45 -43 -50 -37 -93 5 -34 103 -779 118 -894 3 -22
-24 -33 -83 -35 l-36 -1 -6 58 c-4 31 -16 125 -27 207 -11 83 -27 209 -37 282
-9 73 -20 138 -24 144 -5 9 -20 10 -56 3 l-48 -9 2 -45 c1 -25 16 -153 33
-285 17 -132 35 -269 40 -305 5 -36 7 -67 5 -69 -9 -9 -219 -31 -225 -24 -4 4
-15 64 -23 133 -9 69 -24 183 -33 253 l-17 129 58 58 c50 50 57 62 51 85 -7
26 -9 24 -94 -67 -169 -179 -174 -185 -156 -192 26 -10 34 -7 34 12 1 23 81
107 89 93 13 -20 72 -504 63 -513 -5 -5 -44 -11 -87 -13 -77 -4 -366 -43 -374
-50 -2 -2 -1 -11 3 -20 4 -11 13 -14 28 -10 22 6 22 5 4 -9 -10 -8 -16 -21
-13 -28 2 -7 0 -21 -5 -31 -6 -12 -5 -19 7 -23 19 -8 175 10 310 36 137 25
354 52 366 44 5 -3 15 -1 22 4 16 13 69 21 217 33 198 15 226 20 222 44 -20
117 -23 178 -11 185 10 7 10 24 2 85 -6 42 -13 78 -15 79 -1 2 -39 -2 -84 -7
-94 -12 -114 -7 -114 27 0 18 8 27 31 35 29 10 30 13 25 48 -19 126 -26 207
-19 213 4 5 33 10 63 12 53 3 55 2 58 -23 3 -25 5 -26 53 -21 48 4 49 4 50
-24 1 -16 0 -39 -1 -51 -2 -30 20 -58 45 -57 42 2 47 4 41 19 -3 8 -1 15 3 15
5 0 15 -22 22 -50 7 -27 16 -50 21 -50 7 0 5 25 -8 86 -2 15 2 23 14 26 28 8
42 -2 43 -30 1 -15 5 -38 10 -52 6 -18 8 -10 5 32 l-4 56 35 7 c19 3 36 5 38
3 1 -2 7 -28 13 -58 l11 -55 -5 58 c-4 37 -2 57 5 57 6 0 11 -15 12 -32 0 -18
5 -42 10 -53 6 -15 8 -5 6 35 l-2 54 49 9 c27 4 51 6 53 3 3 -3 8 -26 10 -51
8 -69 26 -68 22 1 l-4 59 42 6 c24 3 46 3 51 0 4 -3 9 -24 11 -46 1 -22 7 -44
13 -50 6 -7 7 9 3 48 -6 49 -5 57 9 57 11 0 16 -10 17 -32 1 -18 5 -44 9 -58
7 -21 8 -19 9 18 1 43 7 48 54 44 10 -1 21 8 27 23 5 14 16 25 25 25 8 0 15 7
15 15 0 9 -8 14 -22 12 -22 -2 -24 4 -37 106 -11 80 -18 107 -29 107 -8 0
-152 -18 -321 -41 -168 -22 -331 -41 -361 -42 -53 -2 -55 -1 -58 26 -3 28 -4
28 -60 22 -31 -3 -69 -9 -85 -11 -43 -9 -48 22 -9 56 19 16 32 37 32 50 0 20
-58 220 -64 220 -1 0 -21 -21 -45 -47z m893 -340 c3 -10 8 -43 11 -74 l7 -57
-43 -6 c-24 -4 -56 -9 -71 -12 -31 -6 -36 5 -40 96 l-3 55 50 6 c28 3 58 7 67
7 9 1 19 -6 22 -15z m-1029 -25 c2 -13 6 -41 7 -63 l3 -40 -42 -3 c-41 -3 -42
-3 -48 35 -3 21 -8 46 -10 56 -4 21 20 36 57 37 21 0 29 -6 33 -22z m879 -51
c5 -37 6 -70 3 -73 -6 -6 -130 -24 -135 -20 -5 6 -23 138 -19 142 5 5 110 22
127 20 11 -1 17 -21 24 -69z m-162 7 c4 -21 7 -54 7 -71 1 -35 0 -36 -91 -48
-47 -6 -47 -6 -52 27 -3 18 -7 51 -8 73 l-3 40 60 11 c33 7 64 11 70 10 5 -2
13 -20 17 -42z m-698 -96 c3 -13 6 -35 6 -49 0 -23 -5 -27 -37 -32 -46 -5 -49
-3 -57 50 -6 45 -2 49 55 52 20 1 28 -5 33 -21z m11 -98 c3 -5 7 -33 7 -60 1
-28 5 -53 10 -56 5 -3 9 -27 8 -52 0 -26 3 -67 9 -92 5 -25 7 -48 5 -52 -10
-15 -82 -9 -88 8 -14 36 -6 75 17 84 21 8 21 9 -5 9 -24 1 -28 5 -30 34 0 17
-3 43 -5 57 -2 14 -6 46 -9 72 l-6 47 34 4 c18 2 36 5 40 5 4 1 10 -2 13 -8z
m49 -352 c3 -13 6 -35 6 -49 0 -23 -5 -27 -37 -32 -45 -8 -49 -4 -57 50 -5 38
-4 42 16 46 52 10 66 7 72 -15z m118 -113 c0 -14 1 -31 2 -37 1 -14 -69 -29
-81 -17 -4 4 -27 4 -51 -2 -52 -11 -62 -7 -62 30 0 30 18 41 68 41 17 0 22 -6
23 -27 2 -28 2 -28 6 -3 6 31 19 40 61 40 27 0 32 -4 34 -25z m-200 -37 c1
-15 -1 -28 -7 -30 -5 -2 -11 15 -13 37 -4 45 14 39 20 -7z m-40 -4 c2 -19 2
-37 -1 -38 -13 -8 -180 -28 -188 -23 -14 9 -14 67 -1 72 16 6 123 22 159 24
24 1 27 -3 31 -35z m-214 -35 c3 -36 3 -36 -44 -43 -77 -10 -82 -9 -89 24 -10
47 8 61 74 58 l56 -3 3 -36z m-188 -4 c-16 -19 -5 -34 20 -28 11 3 20 0 20 -6
0 -6 -13 -11 -29 -11 -24 0 -29 5 -33 30 -4 25 -1 30 15 30 16 0 17 -3 7 -15z
m-110 -5 c0 -5 -15 -9 -32 -9 l-33 1 30 8 c17 4 31 8 33 9 1 0 2 -3 2 -9z m46
-15 c4 -14 5 -27 3 -29 -2 -2 -29 -6 -59 -9 l-55 -6 48 11 c44 9 48 13 44 34
-6 32 11 31 19 -1z m-126 -5 c0 -5 -4 -10 -9 -10 -6 0 -13 5 -16 10 -3 6 1 10
9 10 9 0 16 -4 16 -10z m-26 -32 c-5 -8 0 -9 14 -6 12 4 20 2 17 -2 -3 -5 -20
-8 -38 -8 -17 1 -26 3 -18 6 11 4 11 6 0 13 -10 6 -8 9 9 9 15 0 21 -4 16 -12z"/>
<path d="M20588 3853 c6 -2 18 -2 25 0 6 3 1 5 -13 5 -14 0 -19 -2 -12 -5z"/>
<path d="M18120 4090 c-11 -7 -7 -10 18 -10 17 0 32 5 32 10 0 13 -30 13 -50
0z"/>
<path d="M18279 4069 c-19 -17 -56 -49 -84 -70 -89 -68 -113 -93 -170 -173
-100 -141 -135 -195 -135 -208 1 -18 47 38 137 164 63 88 81 107 107 112 17 3
119 17 226 31 107 14 201 28 208 30 7 3 59 -34 114 -83 55 -48 111 -95 125
-106 41 -32 40 -7 -2 32 -111 104 -217 192 -230 192 -9 0 -23 4 -33 10 -36 20
-211 100 -220 100 -4 0 -24 -14 -43 -31z"/>
<path d="M18115 4030 c-4 -6 8 -10 29 -10 20 0 36 5 36 10 0 6 -13 10 -29 10
-17 0 -33 -4 -36 -10z"/>
<path d="M21506 3834 c-220 -30 -401 -56 -403 -57 -1 -2 2 -30 8 -63 15 -87
68 -488 65 -491 -2 -3 -108 -17 -716 -98 -146 -20 -310 -42 -365 -50 -55 -8
-127 -17 -160 -20 -33 -4 -73 -10 -90 -15 -16 -4 -76 -13 -132 -20 -98 -12
-103 -13 -103 -36 0 -28 12 -29 105 -14 33 6 161 24 285 40 124 16 347 46 495
65 149 20 304 40 345 45 41 5 107 14 145 20 82 12 226 31 455 60 91 12 208 27
260 35 52 8 154 21 225 30 186 23 185 22 185 52 0 23 -3 24 -42 21 l-43 -3
-12 85 c-7 47 -21 157 -33 245 -29 229 -29 225 -54 224 -11 -1 -201 -26 -420
-55z"/>
<path d="M18451 3796 c-14 -17 -5 -153 11 -162 5 -3 27 -3 49 1 37 6 40 9 35
33 -3 15 -8 46 -11 70 -10 64 -54 94 -84 58z"/>
<path d="M18206 3769 c-16 -10 -17 -19 -11 -88 4 -42 9 -79 11 -82 3 -6 81 5
88 12 9 10 -16 135 -31 151 -18 21 -30 22 -57 7z"/>
<path d="M17225 3665 c-5 -1 -30 -8 -55 -15 -25 -7 -54 -16 -65 -20 -11 -5
-47 -16 -80 -25 -33 -9 -76 -23 -95 -30 -19 -7 -55 -19 -80 -25 -25 -7 -76
-23 -115 -35 -408 -129 -368 -119 -443 -106 -37 7 -87 14 -112 16 -25 2 -61 7
-80 10 -60 10 -104 16 -138 20 -18 2 -50 6 -70 10 -69 11 -107 16 -122 17 -8
0 -35 4 -60 8 -25 5 -70 11 -100 15 -30 3 -80 10 -110 15 -30 5 -79 12 -109
15 -30 4 -75 10 -100 15 -51 9 -61 6 -61 -19 0 -18 52 -32 165 -46 28 -3 93
-12 145 -20 52 -8 181 -26 285 -40 259 -35 389 -55 394 -60 2 -3 -2 -7 -10
-10 -24 -8 -242 -77 -289 -90 -25 -7 -162 -50 -305 -94 -143 -45 -267 -81
-276 -81 -32 0 -41 73 -11 97 15 13 10 14 -43 8 -33 -3 -69 -7 -80 -9 -44 -8
-151 -20 -162 -18 -6 2 -14 -2 -18 -8 -6 -10 20 -15 61 -11 17 1 23 -6 28 -30
10 -50 8 -57 -16 -61 -19 -2 -23 -10 -24 -38 0 -19 3 -45 7 -57 11 -31 67 -24
249 33 41 13 89 28 105 33 60 18 333 104 470 147 77 24 146 44 153 44 7 0 20
4 30 10 24 13 211 70 231 70 10 0 22 5 29 12 9 9 12 7 12 -10 0 -12 -4 -22
-10 -22 -5 0 -10 -4 -10 -10 0 -5 6 -7 14 -4 10 4 15 -10 20 -53 9 -75 14
-111 47 -365 5 -45 12 -84 14 -88 2 -3 6 -35 9 -71 3 -36 10 -88 15 -115 5
-27 9 -50 8 -51 -1 -1 -14 -4 -29 -8 -32 -8 -28 -21 -64 255 -14 113 -29 208
-32 211 -12 11 -190 -15 -204 -29 -3 -4 4 -88 18 -187 13 -99 26 -203 30 -231
l6 -50 -213 -28 c-252 -34 -204 -27 -459 -60 -113 -14 -225 -30 -250 -35 -44
-10 -207 -33 -323 -47 -57 -6 -81 -24 -61 -44 5 -4 124 7 264 26 140 18 361
47 490 64 129 17 245 33 256 35 12 2 48 6 80 10 33 4 70 9 84 11 14 2 133 18
264 34 132 17 243 33 247 36 4 2 11 0 14 -6 4 -6 3 -10 -2 -8 -7 2 -89 -9
-137 -18 -11 -2 -40 -6 -65 -9 -25 -3 -59 -7 -76 -9 -69 -9 -192 -27 -215 -30
-14 -3 -47 -7 -75 -11 -27 -3 -77 -10 -110 -15 -72 -11 -131 -19 -176 -25 -90
-11 -481 -66 -534 -75 -33 -5 -96 -14 -140 -20 -44 -6 -91 -13 -105 -15 -51
-8 -948 -137 -1045 -150 -55 -8 -110 -16 -123 -18 -12 -2 -30 -14 -39 -26 -12
-18 -22 -22 -46 -17 -16 3 -35 2 -41 -4 -7 -5 -115 -23 -241 -40 -322 -42
-319 -42 -331 -51 -16 -13 -442 -69 -494 -65 -25 1 -83 -3 -130 -10 -47 -6
-124 -15 -171 -18 -47 -3 -171 -16 -275 -30 -104 -14 -249 -32 -322 -41 -73
-8 -142 -20 -155 -25 -12 -5 -74 -17 -137 -25 -63 -8 -198 -26 -300 -39 -102
-14 -198 -27 -215 -30 -16 -2 -52 -7 -80 -11 -71 -8 -121 -15 -190 -25 -70
-10 -133 -19 -172 -24 -15 -2 -66 -9 -113 -16 -47 -7 -98 -14 -113 -16 -15 -2
-44 -6 -65 -9 -108 -15 -259 -37 -352 -50 -218 -30 -241 -34 -257 -47 -7 -5
-20 -8 -30 -5 -16 4 -15 6 4 12 13 4 20 11 17 16 -3 5 -8 7 -12 5 -4 -2 -41
-7 -82 -11 -41 -4 -86 -9 -100 -11 -150 -21 -284 -39 -490 -64 -135 -17 -272
-34 -305 -39 -33 -5 -61 -7 -63 -6 -4 3 -41 269 -42 293 0 11 -15 12 -67 7
-38 -4 -73 -12 -79 -19 -9 -8 -7 -44 7 -146 24 -173 25 -160 -13 -158 -18 1
-76 -6 -128 -15 -118 -20 -394 -57 -430 -57 l-27 0 -18 150 -18 150 -26 -1
c-14 0 -62 -6 -106 -13 l-80 -12 1 -34 c1 -19 9 -87 17 -150 17 -124 13 -140
-29 -140 -13 0 -24 -5 -24 -11 0 -8 11 -9 33 -5 17 4 118 18 222 32 105 13
307 40 450 60 143 19 298 39 345 45 47 5 96 11 110 14 14 2 50 7 80 10 30 3
68 8 84 11 33 5 625 82 701 90 28 3 47 3 43 -1 -4 -4 -22 -9 -40 -11 -18 -2
-51 -6 -73 -9 -22 -3 -123 -16 -225 -30 -270 -36 -476 -64 -507 -69 -16 -3
-55 -8 -88 -12 -33 -3 -69 -8 -79 -10 -11 -2 -56 -9 -100 -15 -45 -6 -90 -12
-101 -14 -11 -1 -74 -10 -140 -19 -66 -9 -131 -18 -145 -20 -14 -3 -43 -7 -65
-10 -22 -2 -103 -14 -180 -25 -77 -11 -189 -27 -250 -36 -127 -17 -239 -34
-275 -40 -28 -4 -184 -27 -390 -55 -74 -10 -151 -22 -170 -26 -29 -5 -33 -4
-22 7 6 7 12 26 12 42 0 28 -1 29 -47 25 l-48 -3 -14 126 -14 126 23 31 c27
36 20 54 -10 27 -19 -18 -20 -17 -20 3 0 31 -11 52 -26 52 -9 0 -14 -12 -14
-36 0 -31 -3 -35 -20 -29 -26 8 -26 -11 1 -27 11 -7 26 -26 33 -43 15 -35 41
-223 33 -231 -3 -4 -95 -19 -204 -34 -109 -16 -217 -33 -240 -38 -49 -11 -45
-17 -62 123 -33 263 -72 549 -76 553 -2 3 -12 2 -21 -2 -11 -4 -13 -10 -6 -19
13 -16 35 -159 25 -167 -4 -4 -36 -10 -70 -14 l-62 -6 -5 33 c-3 17 -7 55 -10
84 -5 48 -3 52 20 57 13 4 24 11 24 17 0 6 -6 9 -14 6 -8 -3 -74 -13 -147 -22
-74 -10 -138 -21 -144 -27 -7 -6 4 -9 30 -6 l40 3 12 -80 c7 -44 9 -83 5 -86
-4 -4 -32 -9 -62 -11 l-55 -3 -14 93 c-11 67 -18 92 -29 92 -10 0 -12 -6 -7
-22 10 -32 29 -167 24 -172 -2 -2 -30 -7 -61 -10 -31 -3 -64 -9 -72 -12 -16
-6 -20 9 -31 119 -5 54 -4 57 17 57 13 0 30 5 38 10 11 7 0 9 -35 7 -42 -3
-50 -6 -48 -23 1 -10 21 -164 44 -341 24 -177 41 -324 39 -327 -3 -2 -28 -7
-56 -11 l-52 -7 -11 69 c-17 106 -81 609 -81 637 0 18 6 27 23 30 21 5 366 51
452 60 109 13 285 37 328 46 26 6 50 10 53 10 2 0 9 -11 14 -25 9 -24 13 -25
47 -19 21 4 57 20 80 35 37 26 41 32 34 56 -6 21 -13 27 -27 23 -10 -2 -41 -4
-69 -5 l-50 0 -11 98 c-7 54 -15 145 -19 203 -6 85 -10 107 -24 111 -24 10
-31 24 -31 71 0 23 -2 42 -3 42 -2 0 -224 -29 -493 -65 -269 -35 -528 -70
-576 -76 -49 -7 -88 -13 -88 -15 0 -1 4 -14 10 -28 9 -24 8 -25 -48 -31 -81
-9 -96 -15 -83 -28 12 -12 15 -54 4 -60 -5 -3 -30 -7 -58 -11 -27 -3 -68 -8
-90 -11 -34 -4 -120 -39 -135 -55 -3 -3 -17 -11 -33 -19 -19 -10 -24 -18 -17
-25 7 -7 13 -7 18 -1 4 6 21 17 37 25 17 8 32 17 35 20 19 19 76 40 137 49
109 17 115 16 111 -16 -3 -27 -6 -28 -82 -38 -49 -6 -81 -15 -84 -23 -3 -9 3
-11 20 -8 97 21 132 25 139 19 9 -10 33 -212 26 -219 -9 -10 -81 -24 -121 -24
-24 0 -36 -4 -30 -9 5 -5 40 -5 82 1 91 12 104 8 100 -34 -3 -29 -7 -32 -68
-50 -36 -10 -92 -23 -125 -29 -70 -12 -124 -28 -145 -45 -8 -6 -31 -15 -50
-19 -65 -12 -90 -26 -90 -50 0 -20 7 -24 63 -34 35 -6 71 -11 81 -11 20 0 31
-27 40 -100 4 -30 19 -134 33 -230 14 -96 26 -197 27 -225 l1 -50 -92 -14
c-56 -9 -93 -19 -93 -26 0 -14 -269 -50 -282 -37 -4 4 -9 27 -10 50 -1 27 -6
42 -14 42 -7 0 -15 15 -18 32 -6 41 -19 198 -21 258 0 25 -4 51 -9 58 -10 16
-36 251 -29 268 2 7 11 10 20 7 11 -4 14 0 11 18 -3 21 -21 30 -168 82 -91 32
-174 62 -185 67 -11 5 -36 16 -55 23 -19 8 -86 60 -148 116 -63 55 -117 101
-120 101 -4 0 -27 -32 -52 -70 -25 -39 -48 -70 -52 -70 -5 0 -8 -4 -8 -9 0
-13 -92 -149 -127 -188 -15 -17 -50 -44 -78 -59 -27 -15 -77 -42 -110 -61 -33
-19 -75 -41 -92 -50 -41 -21 -42 -38 -2 -52 42 -14 40 -15 33 14 -8 33 12 58
40 49 12 -4 18 -3 14 1 -5 5 2 15 13 23 18 12 23 13 30 1 7 -11 9 -10 9 4 0
10 10 22 23 27 12 5 33 18 47 27 31 23 37 33 -144 -231 -5 -7 -6 -34 -2 -59
l7 -47 42 6 c23 4 46 12 50 18 4 6 6 37 3 69 l-6 58 182 275 c100 151 187 274
194 274 7 0 39 -24 71 -53 32 -29 130 -116 217 -192 88 -77 172 -151 187 -165
22 -20 29 -38 37 -95 5 -38 7 -73 3 -77 -3 -3 -60 -14 -126 -23 -66 -9 -135
-18 -154 -21 -18 -2 -140 -18 -269 -34 -130 -17 -250 -35 -267 -40 -26 -8 -24
-9 15 -5 25 3 70 7 100 10 79 8 144 14 235 25 44 5 170 16 280 25 110 8 223
17 250 20 36 4 44 3 28 -4 -12 -6 -178 -30 -370 -56 -723 -95 -753 -101 -737
-126 3 -5 14 -7 24 -4 19 6 33 -8 35 -35 12 -136 31 -255 43 -266 8 -8 12 -26
10 -39 -4 -18 0 -26 13 -30 16 -5 124 7 269 29 50 8 86 13 155 21 111 12 268
36 277 41 7 5 5 27 -9 77 -2 9 0 17 6 17 6 0 11 -11 11 -24 0 -14 4 -36 9 -49
8 -20 15 -24 36 -19 21 3 27 0 32 -17 4 -15 13 -21 33 -21 57 0 90 12 96 35 5
19 14 24 65 29 32 4 59 11 59 16 0 12 11 12 28 1 10 -6 11 -17 5 -42 -8 -30
-13 -34 -49 -37 -21 -2 -43 -7 -49 -12 -14 -11 -143 -30 -203 -30 -27 0 -219
-23 -428 -51 -350 -46 -379 -49 -391 -34 -10 15 -22 16 -85 9 l-73 -9 0 -35
c0 -35 0 -35 40 -32 22 2 157 19 300 38 143 19 361 48 485 64 749 98 810 107
818 114 3 3 1 22 -5 41 -6 19 -7 35 -2 35 5 0 11 -11 15 -25 7 -30 -3 -30 164
-6 128 19 197 27 300 36 62 6 117 14 170 25 25 5 68 12 95 14 52 5 162 19 275
36 36 6 106 15 155 21 50 5 101 11 115 13 14 2 48 6 75 10 28 4 78 11 113 16
34 6 79 12 100 14 20 3 53 7 72 10 46 7 411 56 472 63 27 3 48 1 48 -4 0 -5
-44 -15 -97 -21 -54 -7 -109 -14 -123 -16 -14 -3 -43 -7 -65 -10 -47 -6 -179
-25 -215 -31 -14 -2 -47 -6 -75 -10 -27 -3 -77 -10 -110 -15 -33 -5 -78 -11
-100 -15 -22 -3 -69 -10 -105 -15 -36 -5 -82 -12 -102 -15 -21 -3 -53 -7 -70
-10 -80 -11 -676 -96 -698 -100 -14 -2 -108 -16 -210 -30 -101 -14 -187 -28
-190 -30 -6 -4 -41 -9 -125 -19 -46 -5 -189 -26 -211 -30 -10 -2 -48 -7 -84
-11 -36 -4 -74 -9 -85 -11 -11 -2 -72 -11 -135 -19 -63 -8 -126 -17 -140 -20
-14 -2 -79 -11 -145 -20 -66 -9 -133 -18 -150 -21 -16 -3 -77 -12 -135 -20
-178 -24 -565 -80 -835 -119 -16 -3 -127 -18 -245 -35 -219 -31 -233 -33 -308
-45 -34 -5 -43 -4 -41 7 2 7 -2 47 -9 88 -7 41 -35 238 -61 437 -26 200 -51
366 -54 370 -9 8 -348 -34 -358 -45 -4 -4 1 -65 12 -137 10 -71 18 -145 19
-162 0 -39 0 -39 131 -21 49 6 91 9 94 6 6 -6 55 -347 55 -382 0 -14 -3 -17
-10 -10 -6 6 -21 90 -34 188 -14 98 -26 179 -28 181 -6 5 -327 -41 -334 -48
-4 -4 3 -86 15 -182 21 -158 22 -200 6 -183 -8 8 -56 378 -50 387 2 5 34 12
70 16 56 6 65 9 65 26 0 17 -5 19 -32 15 -67 -11 -190 -26 -216 -26 -18 0 -23
3 -16 10 6 6 64 18 130 26 65 9 121 17 123 20 5 5 -30 294 -40 320 -7 20 -10
20 -91 8 -161 -22 -168 -23 -168 -9 0 8 32 16 98 25 53 7 135 18 182 24 l85
12 -3 40 c-1 21 -4 44 -6 50 -4 11 -300 -25 -366 -46 -19 -5 -154 -26 -300
-45 -145 -19 -267 -38 -270 -43 -3 -4 -3 -83 1 -177 3 -93 6 -220 5 -282 -1
-107 0 -112 19 -108 11 3 40 6 65 7 l45 3 27 -190 c14 -104 27 -204 27 -221
l1 -32 -86 -12 -86 -12 7 -44 c3 -24 3 -44 -2 -45 -4 0 -17 -2 -28 -4 -11 -3
-72 -11 -135 -20 -260 -36 -240 -29 -240 -86 l0 -49 11055 0 11055 0 0 1636 0
1635 -37 -6 c-21 -3 -85 -12 -143 -20 -58 -8 -121 -17 -140 -20 -48 -7 -223
-32 -350 -50 -58 -8 -121 -17 -140 -20 -51 -8 -229 -33 -350 -50 -58 -7 -119
-16 -135 -19 -17 -3 -82 -12 -145 -21 -63 -8 -126 -17 -140 -20 -14 -2 -61 -9
-105 -15 -44 -6 -91 -13 -105 -15 -21 -4 -118 -18 -205 -30 -109 -15 -265 -37
-285 -40 -14 -3 -77 -12 -140 -20 -63 -9 -126 -18 -140 -20 -14 -2 -104 -16
-200 -30 -96 -14 -197 -29 -223 -34 -39 -7 -50 -5 -54 7 -5 13 -8 12 -19 -2
-7 -10 -30 -20 -52 -23 l-40 -5 -7 52 c-4 31 -13 54 -22 57 -8 3 -122 -9 -254
-27 -132 -18 -242 -31 -244 -29 -2 2 -11 65 -19 139 -9 74 -19 143 -22 153 -6
20 -15 21 -117 5 l-78 -12 6 -40 c3 -23 12 -88 20 -145 8 -58 15 -110 15 -116
0 -8 -35 -17 -92 -25 -126 -17 -131 -20 -122 -78 4 -26 8 -48 9 -50 2 -3 189
21 265 33 14 3 48 7 75 10 28 3 58 8 68 11 9 3 17 1 17 -4 0 -5 -6 -9 -12 -9
-16 -1 -83 -9 -178 -23 -41 -6 -93 -13 -115 -16 -22 -3 -51 -7 -65 -10 -14 -2
-61 -8 -105 -14 -44 -6 -93 -13 -110 -16 -16 -3 -77 -12 -135 -19 -58 -8 -136
-19 -175 -25 -64 -10 -71 -9 -85 9 -13 17 -22 18 -75 11 -56 -8 -69 -7 -71 8
-3 29 -27 61 -52 71 -17 7 -36 25 -42 41 -19 45 -100 89 -100 54 0 -14 -2 -15
-16 -3 -15 12 -16 34 -10 187 16 399 25 563 32 574 3 4 30 15 60 24 50 14 55
18 52 42 -3 25 -13 33 -33 27z m-411 -354 c4 -5 9 -36 12 -68 l6 -59 -44 -2
-45 -3 -7 47 c-10 73 -8 82 17 87 40 8 56 7 61 -2z m-99 -58 c4 -27 7 -54 8
-62 2 -10 -11 -15 -40 -18 -29 -2 -43 1 -44 10 0 6 -4 33 -8 59 -4 27 -6 50
-3 53 3 3 22 5 43 5 37 0 38 0 44 -47z m-1421 -89 c10 -25 7 -84 -4 -84 -12 0
-26 61 -21 93 2 13 19 7 25 -9z m-93 -22 c0 -12 3 -11 9 6 15 36 37 27 45 -19
4 -22 5 -42 3 -43 -1 -2 -20 -6 -40 -10 -36 -7 -37 -6 -44 29 -3 19 -3 42 0
51 7 19 26 9 27 -14z m1643 -28 c4 -31 5 -59 2 -61 -2 -3 -22 -7 -44 -10 l-40
-5 -7 55 c-4 31 -4 60 0 66 3 6 23 11 44 11 l38 0 7 -56z m-1690 30 c11 -29 7
-86 -6 -82 -13 5 -30 77 -21 91 7 12 21 8 27 -9z m1580 -30 c11 -81 10 -82
-34 -82 -22 0 -40 2 -41 6 -1 15 -9 58 -14 79 -4 17 1 23 33 31 20 5 40 10 43
11 4 1 9 -20 13 -45z m1608 29 c-29 -4 -33 -8 -30 -31 3 -24 7 -27 36 -24 18
2 32 -1 32 -7 0 -6 -13 -11 -30 -11 -24 0 -30 -4 -30 -21 0 -18 5 -21 30 -17
17 3 30 1 30 -3 0 -4 -10 -9 -22 -11 -18 -2 -23 -10 -23 -33 0 -29 -10 -45
-29 -45 -6 0 -5 5 1 11 5 5 8 21 5 35 -3 19 -10 24 -26 22 -16 -2 -21 -10 -21
-35 0 -49 -11 -40 -19 15 -21 146 -20 152 5 151 17 -1 19 -3 7 -6 -11 -3 -18
-14 -18 -28 0 -29 10 -36 38 -28 23 6 30 37 12 48 -21 13 2 25 43 23 38 -1 39
-2 9 -5z m-1472 -222 c14 -105 11 -111 -47 -111 -31 0 -32 1 -38 58 -4 31 -11
76 -15 100 -8 46 -3 52 55 64 27 5 30 -3 45 -111z m-113 18 c6 -41 12 -89 12
-106 1 -32 0 -33 -39 -33 -44 0 -41 -6 -59 130 -9 69 -7 84 13 77 7 -3 19 -1
27 4 26 16 34 3 46 -72z m1620 15 c-3 -3 -12 -4 -19 -1 -8 3 -5 6 6 6 11 1 17
-2 13 -5z m73 -129 c0 -8 5 -15 10 -15 20 0 9 -28 -12 -33 -43 -10 -219 -30
-224 -25 -3 3 1 17 7 32 12 27 13 27 134 45 86 12 85 12 85 -4z m-1134 -184
c-3 -4 -31 -11 -63 -14 -32 -4 -76 -9 -98 -13 -29 -4 -36 -3 -24 5 9 6 45 14
80 18 99 13 110 13 105 4z m64 -55 c0 -2 -7 -7 -16 -10 -8 -3 -12 -2 -9 4 6
10 25 14 25 6z m-80 -10 c0 -2 -7 -7 -16 -10 -8 -3 -12 -2 -9 4 6 10 25 14 25
6z m-80 -10 c0 -2 -7 -7 -16 -10 -8 -3 -12 -2 -9 4 6 10 25 14 25 6z m37 -2
c-3 -3 -12 -4 -19 -1 -8 3 -5 6 6 6 11 1 17 -2 13 -5z m-127 -14 c-8 -5 -19
-10 -25 -10 -5 0 -3 5 5 10 8 5 20 10 25 10 6 0 3 -5 -5 -10z m-113 -16 c-3
-3 -12 -4 -19 -1 -8 3 -5 6 6 6 11 1 17 -2 13 -5z m-57 -8 c0 -7 -61 -13 -65
-6 -2 3 12 7 31 8 19 2 34 1 34 -2z m-80 -10 c-3 -2 -32 -8 -65 -11 -33 -4
-67 -9 -75 -10 -39 -7 -144 -16 -140 -12 5 5 40 10 150 23 30 3 56 7 57 8 5 4
77 6 73 2z m-10935 -378 c17 -102 35 -230 35 -247 0 -20 -46 -36 -56 -19 -3 5
-11 5 -18 -1 -7 -6 -28 -10 -48 -9 -19 1 -40 -2 -46 -6 -6 -4 -25 -9 -41 -11
-17 -2 -40 -7 -52 -10 -27 -9 -39 8 -39 58 0 26 4 37 15 37 8 0 15 5 15 11 0
5 -5 7 -10 4 -23 -14 -40 17 -39 69 1 28 -2 66 -5 83 -7 31 -7 32 41 38 26 3
73 10 103 15 30 6 71 12 90 13 19 2 38 5 42 5 4 1 10 -13 13 -30z m-333 -46
c2 -41 5 -56 11 -72 7 -17 18 -108 21 -160 1 -34 0 -35 -34 -35 -19 0 -40 -3
-46 -7 -25 -16 -52 3 -57 40 -6 48 -3 52 39 52 32 0 42 8 27 23 -3 4 -12 2
-20 -4 -7 -6 -24 -9 -38 -7 -29 6 -35 -6 -23 -47 16 -58 13 -62 -56 -75 -36
-7 -69 -9 -75 -5 -6 3 -11 25 -11 49 0 24 -4 56 -9 72 -5 16 -12 61 -15 100
l-6 72 68 7 c37 3 83 10 102 14 19 4 54 8 78 9 39 1 42 0 44 -26z m-329 -19
c3 -5 8 -37 11 -73 4 -36 11 -83 16 -105 5 -22 10 -57 10 -78 0 -37 -1 -38
-37 -38 -74 0 -129 -7 -184 -21 -31 -9 -61 -13 -67 -9 -5 3 -11 23 -14 44 -4
34 -1 40 19 48 28 10 31 23 3 16 -29 -7 -37 10 -44 100 l-7 81 28 6 c29 5 155
23 208 30 17 1 35 4 42 5 6 0 14 -2 16 -6z m897 -257 c0 -2 -9 -6 -20 -9 -11
-3 -20 -1 -20 4 0 5 9 9 20 9 11 0 20 -2 20 -4z m-402 -216 c7 -45 11 -84 10
-85 -2 -1 -33 -5 -69 -9 l-66 -6 -11 82 c-6 46 -9 84 -8 85 4 5 111 21 121 18
6 -1 16 -39 23 -85z m-635 12 c2 -20 0 -43 -6 -50 -7 -9 -7 -16 0 -20 5 -4 13
-22 16 -39 7 -34 7 -34 -43 -38 -8 0 -20 -3 -25 -7 -6 -3 -40 -9 -76 -13 l-67
-7 -4 37 c-3 30 -1 39 14 43 10 2 18 8 18 12 0 5 -9 6 -20 3 -17 -5 -20 0 -20
31 0 20 -1 39 -1 44 -3 13 45 32 57 21 7 -6 15 -5 23 4 6 8 21 12 34 10 12 -2
33 0 47 5 36 13 47 6 53 -36z m-250 -4 c3 -13 8 -43 11 -68 4 -25 22 -166 41
-315 20 -148 38 -280 40 -293 6 -27 -16 -38 -90 -43 -47 -4 -49 -3 -57 26 -4
17 -9 56 -9 88 -1 53 -10 70 -24 47 -3 -5 -19 -10 -36 -10 -27 0 -29 3 -29 38
0 20 -5 44 -11 52 -7 11 -9 0 -7 -39 3 -52 2 -54 -26 -64 -21 -7 -31 -6 -37 4
-8 12 -11 11 -19 -2 -5 -9 -19 -15 -32 -14 -26 2 -36 36 -43 135 -2 30 -9 82
-14 116 -6 34 -11 79 -10 100 0 21 -4 54 -10 72 -12 40 -8 43 81 45 34 1 65 5
68 8 3 3 22 9 42 13 34 6 37 5 41 -21 2 -15 4 5 3 46 l-1 75 45 12 c66 18 77
17 83 -8z m1068 -149 c3 -30 9 -77 13 -104 l8 -51 -67 -10 c-40 -6 -69 -6 -72
-1 -3 5 -9 45 -14 88 -4 44 -10 87 -13 97 -5 16 3 20 56 29 35 5 68 9 73 8 6
-1 13 -26 16 -56z m-160 -5 c4 -21 9 -69 12 -105 l6 -67 -57 -8 c-31 -4 -61
-8 -67 -9 -10 0 -19 41 -29 146 l-7 66 58 10 c32 5 62 9 68 8 5 -1 13 -19 16
-41z m-167 -6 c8 -36 25 -182 22 -185 -1 -2 -30 -6 -63 -9 l-59 -6 -12 95 c-7
53 -12 100 -12 106 0 9 26 14 97 19 16 2 24 -5 27 -20z m-135 -99 c7 -56 11
-102 9 -103 -7 -6 -142 -25 -146 -21 -3 2 -8 39 -13 82 -16 138 -18 127 21
134 19 4 53 7 76 8 l40 1 13 -101z m-339 89 c0 -2 15 -110 33 -241 31 -224 32
-239 16 -248 -10 -5 -31 -9 -46 -9 l-29 0 -27 213 c-16 116 -31 226 -34 244
-5 30 -3 32 28 36 19 2 40 5 47 5 6 1 12 1 12 0z m-105 -90 c4 -40 17 -149 30
-243 12 -93 22 -171 21 -172 0 0 -21 -3 -46 -5 l-44 -3 -12 80 c-27 187 -43
303 -48 352 l-5 52 42 9 c23 5 45 7 48 5 4 -1 10 -36 14 -75z m929 -85 c6 -24
28 -205 24 -208 -2 -2 -33 -6 -70 -10 -54 -6 -68 -5 -68 6 0 12 -7 72 -22 194
-3 16 4 21 37 26 75 11 93 10 99 -8z m-149 -70 c5 -57 11 -107 18 -150 1 -9
-124 -34 -134 -27 -3 2 -9 29 -13 61 -3 32 -10 81 -15 108 -5 28 -7 52 -4 55
4 4 71 14 125 19 13 1 18 -12 23 -66z m-166 10 c6 -21 14 -72 17 -114 6 -74 6
-76 -17 -82 -13 -4 -41 -7 -61 -7 -41 0 -40 -4 -58 134 -6 44 -7 83 -3 87 5 4
28 9 53 12 25 2 48 4 52 5 4 1 12 -15 17 -35z m-140 -85 c7 -57 13 -107 14
-113 3 -15 -144 -35 -148 -21 -2 6 -9 51 -15 100 -6 50 -14 94 -16 98 -8 13
41 25 142 37 7 1 16 -39 23 -101z m-4686 -75 c56 -230 56 -211 5 -218 -24 -3
-101 -14 -173 -24 -71 -11 -133 -16 -137 -13 -4 4 -8 68 -9 142 -2 191 0 230
11 230 6 0 10 -64 9 -171 0 -94 2 -173 4 -176 6 -5 292 33 305 41 9 6 -50 272
-69 308 -12 24 -11 28 4 28 9 0 26 -49 50 -147z m2977 109 c0 -5 -33 -13 -72
-18 l-73 -9 2 -35 c0 -19 7 -72 14 -118 11 -75 9 -105 -7 -89 -4 3 -10 48 -15
98 -5 50 -11 106 -15 124 l-6 32 69 10 c93 14 103 14 103 5z m2790 -96 c0 -2
-7 -7 -16 -10 -8 -3 -12 -2 -9 4 6 10 25 14 25 6z m-3601 -53 c11 -46 30 -174
31 -200 0 -8 -16 -12 -49 -10 l-49 2 -11 95 c-7 52 -14 107 -17 122 -5 24 -2
27 28 31 18 2 38 5 45 5 6 1 16 -19 22 -45z m549 -18 c-2 -1 -13 -6 -25 -9
-20 -6 -23 -4 -23 18 0 31 43 42 48 13 2 -10 2 -20 0 -22z m-88 0 c0 -20 -5
-25 -25 -25 -20 0 -25 5 -25 25 0 20 5 25 25 25 20 0 25 -5 25 -25z m-210 -27
c0 -36 -4 -35 -14 5 -4 16 -2 27 4 27 5 0 10 -14 10 -32z m-53 -10 c-3 -7 -5
-2 -5 12 0 14 2 19 5 13 2 -7 2 -19 0 -25z m-37 0 c0 -17 -6 -23 -25 -24 -20
-2 -25 3 -25 22 0 19 5 24 25 24 19 0 25 -5 25 -22z m404 -24 c8 -20 8 -19
-26 -28 -25 -6 -28 -4 -28 19 0 20 5 25 24 25 13 0 27 -7 30 -16z m-94 -13 c0
-20 -25 -35 -41 -25 -5 3 -9 14 -9 25 0 14 7 19 25 19 18 0 25 -5 25 -19z
m-211 -28 c0 -25 -1 -25 -8 -8 -5 11 -7 23 -4 28 8 14 13 7 12 -20z m-40 -26
c1 -5 -3 -5 -9 -2 -5 3 -10 16 -9 28 0 21 1 21 9 2 5 -11 9 -24 9 -28z m-49
13 c0 -11 -4 -20 -9 -20 -5 0 -16 -3 -25 -6 -12 -5 -16 0 -16 20 0 21 5 26 25
26 18 0 25 -5 25 -20z m810 -20 c0 -5 -5 -10 -11 -10 -5 0 -7 5 -4 10 3 6 8
10 11 10 2 0 4 -4 4 -10z m-2965 -112 c40 -287 52 -384 46 -389 -10 -11 -101
-21 -101 -11 0 4 -7 60 -15 123 -8 63 -18 134 -21 159 -3 25 -9 49 -14 53 -4
5 -44 3 -89 -3 -64 -10 -81 -16 -81 -29 0 -9 9 -84 21 -165 11 -82 18 -154 16
-160 -4 -11 -154 -43 -160 -35 -5 7 -58 442 -54 445 1 2 39 6 82 9 44 4 134
15 200 25 174 26 163 27 170 -22z m333 -326 c2 -18 -1 -32 -6 -32 -12 0 -22
24 -22 52 0 32 25 15 28 -20z"/>
<path d="M15211 3104 c0 -11 3 -14 6 -6 3 7 2 16 -1 19 -3 4 -6 -2 -5 -13z"/>
<path d="M18268 3063 c-28 -7 -23 -43 6 -43 14 0 27 4 30 9 7 11 -3 42 -13 40
-3 -1 -14 -3 -23 -6z"/>
<path d="M5882 2108 c-1 -23 -7 -38 -14 -38 -7 0 -5 -5 5 -11 11 -7 17 -22 17
-49 0 -41 0 -41 -52 -44 -10 -1 -17 -5 -15 -11 1 -5 9 -9 17 -7 8 1 28 3 43 4
30 1 44 13 27 23 -5 3 -10 23 -10 44 0 31 4 40 23 46 21 8 21 8 -5 12 -22 3
-28 11 -31 36 -4 31 -4 31 -5 -5z"/>
<path d="M5718 2071 c-3 -19 1 -45 7 -58 l13 -24 4 30 c2 17 1 34 -3 38 -4 5
-9 17 -11 28 -3 14 -6 10 -10 -14z"/>
<path d="M5930 1970 c0 -5 5 -10 10 -10 6 0 10 5 10 10 0 6 -4 10 -10 10 -5 0
-10 -4 -10 -10z"/>
<path d="M5735 1940 c3 -5 8 -10 11 -10 2 0 4 5 4 10 0 6 -5 10 -11 10 -5 0
-7 -4 -4 -10z"/>
<path d="M5383 2014 c-6 -13 -7 -24 -3 -24 5 0 10 -7 12 -15 2 -10 6 -8 14 9
8 17 8 27 0 38 -10 14 -13 12 -23 -8z"/>
<path d="M5534 2025 c-16 -11 -15 -12 2 -17 10 -2 29 1 42 8 l23 11 -25 5
c-14 3 -33 0 -42 -7z"/>
<path d="M5475 2010 c3 -5 8 -10 11 -10 2 0 4 5 4 10 0 6 -5 10 -11 10 -5 0
-7 -4 -4 -10z"/>
<path d="M5561 1964 c0 -11 3 -14 6 -6 3 7 2 16 -1 19 -3 4 -6 -2 -5 -13z"/>
<path d="M5400 1900 c0 -5 5 -10 11 -10 5 0 7 5 4 10 -3 6 -8 10 -11 10 -2 0
-4 -4 -4 -10z"/>
<path d="M5224 2022 c5 -27 2 -34 -17 -42 l-22 -9 23 0 c16 -1 22 -7 22 -23 0
-13 5 -30 11 -38 8 -11 9 -6 5 23 -4 32 -2 39 17 47 l22 9 -22 0 c-15 1 -23 7
-23 19 0 9 -5 24 -11 32 -8 11 -9 7 -5 -18z"/>
<path d="M5064 2000 c4 -22 1 -32 -8 -36 -12 -5 -12 -9 2 -23 16 -16 17 -16
24 0 7 18 -8 89 -19 89 -3 0 -3 -14 1 -30z"/>
<path d="M5140 1970 c0 -5 5 -10 11 -10 5 0 7 5 4 10 -3 6 -8 10 -11 10 -2 0
-4 -4 -4 -10z"/>
<path d="M5228 1885 c-2 -3 -20 -6 -38 -8 -18 -1 -35 -8 -38 -16 -3 -10 2 -11
18 -6 28 9 50 13 73 14 10 1 15 6 12 11 -7 11 -19 13 -27 5z"/>
<path d="M5270 1879 c0 -5 5 -7 10 -4 6 3 10 8 10 11 0 2 -4 4 -10 4 -5 0 -10
-5 -10 -11z"/>
<path d="M5252 1825 c0 -16 2 -22 5 -12 2 9 2 23 0 30 -3 6 -5 -1 -5 -18z"/>
<path d="M5161 1818 c-1 -16 4 -28 9 -28 12 0 12 8 0 35 -8 18 -9 17 -9 -7z"/>
<path d="M5076 1551 c-4 -5 -2 -12 3 -15 5 -4 12 -2 15 3 4 5 2 12 -3 15 -5 4
-12 2 -15 -3z"/>
<path d="M5000 1535 c0 -8 5 -15 10 -15 6 0 10 7 10 15 0 8 -4 15 -10 15 -5 0
-10 -7 -10 -15z"/>
<path d="M4588 1425 c-3 -22 -1 -44 3 -49 5 -6 9 -25 9 -42 0 -18 4 -36 10
-39 6 -4 8 12 6 41 -3 39 0 47 15 51 10 3 16 9 14 14 -3 4 -12 6 -19 3 -8 -3
-16 7 -23 28 l-10 33 -5 -40z"/>
<path d="M4765 1421 c-3 -5 -1 -12 5 -16 5 -3 10 1 10 9 0 18 -6 21 -15 7z"/>
<path d="M4685 1409 c-10 -15 3 -25 16 -12 7 7 7 13 1 17 -6 3 -14 1 -17 -5z"/>
<path d="M4725 1410 c-3 -5 -2 -10 4 -10 5 0 13 5 16 10 3 6 2 10 -4 10 -5 0
-13 -4 -16 -10z"/>
<path d="M4696 1311 c-4 -7 -5 -15 -2 -18 9 -9 19 4 14 18 -4 11 -6 11 -12 0z"/>
<path d="M4786 1268 c6 -32 3 -36 -19 -42 -14 -3 -32 -3 -40 0 -21 8 -29 -10
-18 -38 l10 -23 0 23 c1 21 5 23 39 20 l37 -3 11 -70 c7 -38 12 -62 13 -51 2
34 -22 201 -30 210 -5 5 -6 -7 -3 -26z"/>
<path d="M4620 1237 c0 -8 -3 -22 -6 -31 -4 -11 -1 -16 10 -16 13 0 15 6 10
28 -8 33 -14 41 -14 19z"/>
<path d="M4658 1203 c7 -3 16 -2 19 1 4 3 -2 6 -13 5 -11 0 -14 -3 -6 -6z"/>
<path d="M4633 1130 c0 -25 2 -35 4 -22 2 12 2 32 0 45 -2 12 -4 2 -4 -23z"/>
<path d="M2956 930 c8 -43 14 -51 14 -19 0 13 -5 31 -10 39 -7 11 -8 5 -4 -20z"/>
<path d="M2967 848 c8 -46 13 -48 13 -5 0 21 -4 37 -10 37 -5 0 -7 -14 -3 -32z"/>
<path d="M18728 3563 c-21 -5 -21 -15 -5 -143 12 -92 13 -95 40 -98 25 -3 27
-1 26 35 -1 69 -24 206 -34 208 -6 2 -18 1 -27 -2z"/>
<path d="M18664 3552 c-8 -5 -7 -40 4 -117 14 -113 23 -138 43 -118 8 8 8 40
-2 117 -13 104 -23 132 -45 118z"/>
<path d="M18428 3523 c-12 -3 -15 -12 -12 -36 3 -18 11 -70 17 -117 12 -81 14
-85 37 -85 23 0 25 3 23 40 -1 22 -7 77 -14 123 -11 81 -14 85 -51 75z"/>
<path d="M18371 3511 c-11 -7 -11 -25 -2 -102 18 -146 19 -149 49 -130 11 6
10 28 -2 120 -9 61 -16 114 -16 116 0 8 -14 6 -29 -4z"/>
<path d="M18128 3483 c-21 -5 -21 -6 -5 -138 12 -98 13 -100 40 -103 23 -3 27
0 27 22 0 25 -17 162 -26 204 -4 22 -6 23 -36 15z"/>
<path d="M18063 3472 c-9 -6 -9 -32 3 -117 16 -113 25 -138 45 -118 14 14 -10
235 -26 240 -5 1 -15 -1 -22 -5z"/>
<path d="M12310 3364 c-8 -1 -36 -6 -62 -9 -50 -6 -58 -16 -34 -40 14 -15 33
-132 22 -142 -3 -3 -42 22 -86 56 -44 33 -84 61 -89 61 -4 0 -43 -52 -86 -117
-43 -64 -108 -156 -143 -205 -46 -65 -61 -93 -53 -101 11 -11 59 32 92 83 16
24 17 23 28 -65 7 -50 15 -102 17 -117 4 -21 2 -28 -10 -28 -19 0 -21 -14 -3
-28 9 -8 38 -7 102 2 50 8 95 10 100 5 6 -4 43 -3 82 3 80 11 71 4 253 218 35
41 70 79 77 83 26 16 2 24 -49 16 -38 -6 -56 -5 -65 4 -7 6 -19 68 -28 137 -9
69 -18 130 -20 136 -2 6 1 16 7 22 22 22 -6 36 -52 26z m-187 -159 c40 -30 47
-40 47 -69 0 -47 -27 -76 -76 -83 -37 -5 -43 -2 -61 23 -12 16 -22 38 -24 49
-4 21 29 85 43 85 4 0 8 7 8 15 0 22 9 19 63 -20z m181 -145 c4 -5 2 -8 -5 -7
-30 3 -150 -16 -154 -24 -3 -4 -1 -16 4 -26 5 -10 13 -47 18 -83 9 -56 7 -68
-10 -97 -10 -18 -23 -31 -27 -28 -4 3 -6 -4 -3 -15 4 -15 2 -19 -10 -14 -17 6
-31 94 -32 196 l0 58 -45 0 c-25 0 -63 -5 -85 -10 -22 -5 -41 -7 -43 -5 -2 2
16 32 40 67 40 59 43 61 46 36 2 -16 8 -28 13 -28 5 0 9 -7 7 -16 -3 -18 13
-22 82 -25 46 -1 94 51 86 93 -5 27 -4 27 52 -18 31 -26 61 -50 66 -54z m-34
-55 c0 -3 -13 -27 -30 -53 -16 -27 -30 -54 -30 -61 0 -6 -4 -11 -10 -11 -5 0
-10 10 -10 23 0 12 -3 38 -6 59 -6 32 -4 37 17 41 36 6 69 8 69 2z m-213 -125
c7 -55 8 -99 3 -104 -5 -5 -34 -11 -64 -14 l-54 -4 -6 38 c-3 22 -8 65 -12 96
-3 32 -7 61 -8 65 0 5 19 11 44 14 87 12 84 15 97 -91z"/>
<path d="M12047 3172 c-21 -23 -21 -41 -1 -70 17 -24 62 -30 82 -10 16 16 15
59 -2 81 -17 22 -58 22 -79 -1z"/>
<path d="M11968 3059 c-10 -16 -14 -29 -10 -29 12 1 43 48 34 54 -4 2 -15 -9
-24 -25z"/>
<path d="M12210 3070 c0 -5 5 -10 10 -10 6 0 10 5 10 10 0 6 -4 10 -10 10 -5
0 -10 -4 -10 -10z"/>
<path d="M12100 3010 c0 -5 5 -10 10 -10 6 0 10 5 10 10 0 6 -4 10 -10 10 -5
0 -10 -4 -10 -10z"/>
<path d="M12130 2990 c0 -5 5 -10 11 -10 5 0 7 5 4 10 -3 6 -8 10 -11 10 -2 0
-4 -4 -4 -10z"/>
<path d="M12090 2984 c0 -7 40 -44 47 -44 7 0 3 7 -16 28 -18 22 -31 28 -31
16z"/>
<path d="M12100 2893 c0 -5 5 -15 10 -23 8 -12 10 -11 10 8 0 12 -4 22 -10 22
-5 0 -10 -3 -10 -7z"/>
<path d="M12140 2870 c0 -5 5 -10 10 -10 6 0 10 5 10 10 0 6 -4 10 -10 10 -5
0 -10 -4 -10 -10z"/>
<path d="M15360 3359 c0 -5 5 -7 10 -4 6 3 10 8 10 11 0 2 -4 4 -10 4 -5 0
-10 -5 -10 -11z"/>
<path d="M17870 3240 c-2 -19 -2 -42 -1 -50 1 -8 3 -35 5 -60 2 -25 6 -52 10
-60 3 -8 10 -46 15 -85 20 -157 45 -295 53 -295 5 0 7 15 4 33 -17 108 -26
180 -31 237 -4 61 -24 185 -44 275 l-9 40 -2 -35z"/>
<path d="M18990 3246 c0 -16 32 -232 36 -245 3 -9 8 -11 14 -5 10 10 4 58 -22
181 -11 52 -28 94 -28 69z"/>
<path d="M18769 3226 c-3 -3 2 -56 11 -118 15 -109 16 -113 40 -113 29 0 28
-6 10 138 -12 90 -14 97 -35 97 -12 0 -24 -2 -26 -4z"/>
<path d="M18703 3183 c3 -21 11 -75 18 -120 9 -69 14 -83 30 -83 28 0 30 13
19 112 -15 123 -17 128 -47 128 -24 0 -25 -2 -20 -37z"/>
<path d="M18571 3199 c-14 -5 -30 -8 -36 -5 -31 11 -34 -9 -19 -119 8 -61 18
-113 22 -117 4 -4 13 -3 21 1 11 7 11 25 1 110 -7 56 -11 104 -7 107 3 3 8
-21 12 -53 19 -160 18 -157 48 -160 32 -2 33 4 16 124 -18 135 -15 129 -58
112z"/>
<path d="M13110 3125 c-91 -13 -255 -35 -365 -50 -110 -14 -202 -28 -204 -31
-3 -2 5 -11 17 -20 12 -8 74 -56 139 -107 65 -51 124 -96 131 -101 13 -8 652
72 663 83 9 9 -184 246 -201 247 -8 1 -89 -8 -180 -21z"/>
<path d="M16192 3077 c-35 -36 -40 -58 -17 -77 13 -11 14 -8 8 20 -5 29 -2 37
23 56 15 13 26 25 23 28 -3 3 -20 -9 -37 -27z"/>
<path d="M16251 3096 c-9 -11 -10 -16 -2 -16 6 0 21 -16 32 -35 26 -44 44 -46
21 -3 -9 18 -20 35 -23 38 -3 3 -8 11 -10 19 -4 10 -7 10 -18 -3z"/>
<path d="M16335 3040 c3 -5 8 -10 11 -10 2 0 4 5 4 10 0 6 -5 10 -11 10 -5 0
-7 -4 -4 -10z"/>
<path d="M16360 3020 c0 -5 5 -10 11 -10 5 0 7 5 4 10 -3 6 -8 10 -11 10 -2 0
-4 -4 -4 -10z"/>
<path d="M15630 3010 c0 -5 5 -10 11 -10 5 0 7 5 4 10 -3 6 -8 10 -11 10 -2 0
-4 -4 -4 -10z"/>
<path d="M12530 3000 c0 -5 5 -10 11 -10 5 0 7 5 4 10 -3 6 -8 10 -11 10 -2 0
-4 -4 -4 -10z"/>
<path d="M15530 3000 c-13 -8 -12 -10 3 -10 9 0 17 5 17 10 0 12 -1 12 -20 0z"/>
<path d="M15839 3005 c-3 -2 -31 -6 -62 -9 -32 -3 -88 -11 -125 -17 -117 -18
-456 -58 -463 -53 -7 4 -19 -20 -19 -38 0 -7 18 -9 50 -5 50 6 50 6 50 -23 0
-25 -4 -29 -40 -35 -56 -9 -52 -29 5 -23 25 3 45 5 45 4 0 0 11 -86 25 -190
14 -104 25 -190 25 -192 0 -1 -17 -4 -37 -6 -20 -2 -39 -9 -41 -17 -5 -16 28
-13 263 20 77 10 154 21 170 23 243 28 325 43 325 58 0 21 -61 483 -65 496 -4
11 -96 18 -106 7z m71 -65 c0 -27 -3 -30 -29 -30 -16 0 -36 -3 -44 -6 -10 -3
-17 3 -21 21 -9 36 -5 40 48 43 45 3 46 2 46 -28z m-127 -7 c3 -16 5 -29 4
-29 -1 -1 -21 -5 -44 -9 -39 -6 -43 -5 -43 14 0 12 0 24 0 29 -1 4 14 10 32
13 18 4 36 7 39 8 4 0 9 -11 12 -26z m-121 -18 c6 -30 4 -32 -46 -36 -36 -4
-39 -2 -43 23 -3 21 1 27 19 31 54 10 66 7 70 -18z m-122 -19 c0 -26 -16 -36
-60 -36 -20 0 -29 6 -33 22 -8 28 7 38 56 38 32 0 37 -3 37 -24z m-130 -15 c0
-24 -5 -29 -31 -35 -65 -13 -79 -9 -79 23 0 28 2 30 48 34 26 2 50 4 55 5 4 1
7 -11 7 -27z m520 -101 c16 -128 18 -146 28 -211 l8 -56 -47 -9 -47 -10 -6 30
c-6 36 -46 334 -46 347 0 9 81 17 91 9 4 -3 12 -48 19 -100z m-111 -85 c12
-93 23 -177 24 -184 1 -10 -13 -18 -41 -24 -24 -5 -46 -6 -48 -4 -4 4 -30 178
-48 324 -6 49 -5 53 16 57 51 11 63 12 69 7 4 -3 16 -82 28 -176z m-120 -29
c13 -103 22 -188 20 -190 -2 -2 -24 -6 -49 -7 l-45 -4 -22 165 c-30 229 -31
218 15 223 20 2 41 3 47 2 5 -1 20 -86 34 -189z m-149 170 c0 -2 11 -86 25
-187 13 -100 23 -185 20 -187 -2 -3 -26 -7 -52 -9 l-48 -5 -18 148 c-10 82
-20 168 -24 191 -5 38 -3 42 18 46 33 6 79 8 79 3z m-100 -219 c12 -93 20
-170 18 -173 -2 -2 -29 -6 -60 -10 l-55 -6 -13 103 c-7 57 -18 142 -25 189 -7
47 -12 86 -11 87 1 2 27 6 57 11 66 10 61 22 89 -201z"/>
<path d="M15406 2987 c3 -10 9 -15 12 -12 3 3 0 11 -7 18 -10 9 -11 8 -5 -6z"/>
<path d="M15365 2981 c-3 -5 -1 -12 5 -16 5 -3 10 1 10 9 0 18 -6 21 -15 7z"/>
<path d="M12505 2936 c-22 -33 -5 -66 33 -66 34 0 52 16 52 47 0 44 -60 57
-85 19z"/>
<path d="M10556 2909 c-66 -10 -75 -14 -58 -31 7 -7 12 -21 12 -33 0 -12 5
-26 12 -33 6 -6 16 -44 22 -84 9 -63 14 -73 31 -73 13 0 21 -8 23 -22 3 -20
-1 -23 -32 -23 -23 0 -36 -5 -36 -13 0 -29 39 -287 45 -297 7 -11 68 -6 107 9
13 5 54 12 92 16 51 6 66 11 62 21 -3 8 -4 14 -3 15 47 11 293 36 295 29 6
-16 42 -11 42 6 0 16 -97 211 -108 217 -4 2 -61 -4 -127 -13 -227 -33 -233
-33 -239 -13 -4 15 -36 225 -36 241 0 2 -6 2 -14 -1 -19 -7 -50 28 -43 48 9
21 28 19 34 -5 7 -26 23 -26 23 -1 0 11 5 23 10 26 6 3 10 10 10 16 0 11 -41
10 -124 -2z m15 -55 c5 -15 7 -29 4 -32 -9 -10 -48 35 -41 47 12 18 26 12 37
-15z"/>
<path d="M16101 2894 c0 -11 3 -14 6 -6 3 7 2 16 -1 19 -3 4 -6 -2 -5 -13z"/>
<path d="M11830 2871 c0 -17 18 -21 24 -6 3 9 0 15 -9 15 -8 0 -15 -4 -15 -9z"/>
<path d="M11881 2854 c0 -11 3 -14 6 -6 3 7 2 16 -1 19 -3 4 -6 -2 -5 -13z"/>
<path d="M13450 2859 c-44 -11 -557 -82 -588 -81 -15 0 -22 -5 -18 -13 2 -7 8
-44 11 -83 l7 -70 -38 -6 c-22 -3 -145 -20 -274 -36 -129 -17 -240 -33 -247
-35 -7 -2 -19 2 -27 10 -17 18 -13 138 6 163 8 11 4 10 -12 -3 -20 -16 -39
-20 -95 -20 -39 1 -75 3 -80 7 -14 8 -213 -19 -248 -33 -15 -7 -42 -33 -59
-58 -17 -25 -40 -56 -51 -68 -11 -13 -18 -26 -14 -29 3 -3 109 8 235 25 126
17 232 31 235 31 4 0 4 25 2 55 l-6 56 32 -16 c30 -16 31 -19 27 -66 -3 -27
-1 -49 3 -49 15 0 10 -20 -13 -50 -16 -23 -32 -31 -67 -35 -76 -10 -85 -13
-99 -35 -9 -15 -10 -25 -2 -38 9 -14 10 -14 5 6 -4 12 -2 22 4 22 11 0 16 -22
31 -145 6 -49 13 -100 16 -112 3 -16 0 -23 -12 -23 -10 0 -14 -7 -12 -22 3
-20 9 -23 48 -22 74 1 100 11 100 39 0 23 -4 25 -49 25 l-49 0 -11 83 c-26
184 -26 167 0 168 56 2 125 10 299 34 102 14 270 36 373 50 104 14 196 29 205
34 9 4 23 6 30 4 23 -9 12 27 -13 39 -14 6 -32 22 -41 35 -8 14 -22 22 -29 19
-14 -5 -17 1 -29 57 -7 32 7 40 90 51 l50 7 12 -103 c9 -76 9 -104 1 -107 -6
-2 -21 -14 -32 -27 -11 -13 -29 -24 -38 -24 -16 0 -17 -7 -12 -52 3 -29 8 -56
12 -60 7 -8 641 74 641 83 0 11 -142 53 -167 50 -17 -2 -23 3 -23 18 0 12 -4
21 -10 21 -5 0 -7 8 -4 18 5 14 4 14 -4 3 -7 -10 -7 -21 -1 -33 5 -10 8 -18 7
-19 -11 -3 -60 -9 -168 -23 -69 -9 -134 -18 -145 -21 -19 -4 -21 0 -19 43 2
43 -4 90 -25 199 -4 23 -5 41 -2 39 3 -2 43 2 87 8 68 10 81 10 77 -1 -5 -12
11 -148 23 -198 3 -11 16 -25 29 -32 27 -12 35 0 10 14 -9 6 -18 37 -25 88 -6
44 -13 94 -15 112 l-6 31 68 8 c37 4 71 7 76 6 4 -1 7 4 7 11 0 6 18 25 40 40
60 43 54 55 -20 36z m-486 -274 c3 -8 1 -15 -4 -15 -6 0 -10 7 -10 15 0 8 2
15 4 15 2 0 6 -7 10 -15z"/>
<path d="M12354 2798 c-17 -18 -34 -40 -40 -48 -5 -9 0 -6 11 7 12 13 33 23
50 24 17 1 22 3 13 6 -14 4 -16 8 -8 24 15 27 8 24 -26 -13z"/>
<path d="M11870 2809 c0 -5 5 -7 10 -4 6 3 10 8 10 11 0 2 -4 4 -10 4 -5 0
-10 -5 -10 -11z"/>
<path d="M11848 2794 c-9 -9 7 -77 20 -82 14 -4 16 14 2 23 -5 3 -10 13 -10
21 0 8 5 12 10 9 6 -3 10 0 10 8 0 15 -24 30 -32 21z"/>
<path d="M12418 2793 c7 -3 16 -2 19 1 4 3 -2 6 -13 5 -11 0 -14 -3 -6 -6z"/>
<path d="M16395 2780 c-3 -5 -1 -10 4 -10 6 0 11 5 11 10 0 6 -2 10 -4 10 -3
0 -8 -4 -11 -10z"/>
<path d="M12710 2770 c0 -5 5 -10 10 -10 6 0 10 5 10 10 0 6 -4 10 -10 10 -5
0 -10 -4 -10 -10z"/>
<path d="M12658 2763 c7 -3 16 -2 19 1 4 3 -2 6 -13 5 -11 0 -14 -3 -6 -6z"/>
<path d="M12380 2730 c0 -5 5 -10 10 -10 6 0 10 5 10 10 0 6 -4 10 -10 10 -5
0 -10 -4 -10 -10z"/>
<path d="M12320 2715 c0 -8 4 -15 10 -15 5 0 7 7 4 15 -4 8 -8 15 -10 15 -2 0
-4 -7 -4 -15z"/>
<path d="M13385 2721 c-3 -5 -1 -12 5 -16 5 -3 10 1 10 9 0 18 -6 21 -15 7z"/>
<path d="M13325 2710 c-3 -5 -2 -10 4 -10 5 0 13 5 16 10 3 6 2 10 -4 10 -5 0
-13 -4 -16 -10z"/>
<path d="M13152 2691 c4 -13 18 -16 19 -4 0 4 -5 9 -11 12 -7 2 -11 -2 -8 -8z"/>
<path d="M13205 2690 c3 -5 8 -10 11 -10 2 0 4 5 4 10 0 6 -5 10 -11 10 -5 0
-7 -4 -4 -10z"/>
<path d="M16411 2684 c0 -11 3 -14 6 -6 3 7 2 16 -1 19 -3 4 -6 -2 -5 -13z"/>
<path d="M12320 2670 c0 -5 5 -10 10 -10 6 0 10 5 10 10 0 6 -4 10 -10 10 -5
0 -10 -4 -10 -10z"/>
<path d="M13020 2670 c0 -5 5 -10 10 -10 6 0 10 5 10 10 0 6 -4 10 -10 10 -5
0 -10 -4 -10 -10z"/>
<path d="M12975 2660 c4 -6 11 -8 16 -5 14 9 11 15 -7 15 -8 0 -12 -5 -9 -10z"/>
<path d="M16410 2619 c0 -5 5 -7 10 -4 6 3 10 8 10 11 0 2 -4 4 -10 4 -5 0
-10 -5 -10 -11z"/>
<path d="M8010 2606 c13 -8 30 -29 37 -47 12 -32 13 -32 7 -4 -4 17 -6 38 -6
48 1 13 -7 17 -31 17 l-32 -1 25 -13z"/>
<path d="M12221 2604 c0 -11 3 -14 6 -6 3 7 2 16 -1 19 -3 4 -6 -2 -5 -13z"/>
<path d="M12209 2553 c-3 -55 -4 -56 -39 -59 -145 -16 -412 -53 -417 -57 -1
-2 38 -299 52 -391 6 -33 15 -48 15 -23 0 10 2 17 5 17 2 0 52 7 111 16 59 9
118 14 131 11 13 -2 26 0 29 4 3 5 0 9 -5 9 -6 0 -11 7 -11 16 0 9 -6 22 -14
28 -8 7 -20 59 -30 136 -16 122 -16 125 4 152 12 16 16 29 10 33 -6 3 -10 -1
-10 -10 0 -11 -4 -14 -15 -8 -16 10 -211 -16 -233 -30 -8 -6 -10 -13 -4 -20 8
-10 20 -84 45 -266 1 -8 -3 -16 -9 -18 -7 -2 -16 30 -23 89 -7 51 -14 102 -16
113 -1 11 -6 45 -10 76 l-7 55 109 13 c59 8 127 15 149 16 23 1 46 5 50 8 5 2
32 7 61 11 28 3 58 8 66 12 15 6 29 84 15 84 -5 0 -8 -8 -9 -17z m-205 -294
c9 -67 14 -125 9 -130 -4 -4 -40 -11 -79 -14 l-72 -7 -6 38 c-20 134 -28 206
-23 211 5 5 84 17 138 22 13 1 19 -22 33 -120z"/>
<path d="M10385 2540 c-6 -9 0 -74 19 -214 2 -11 8 -22 15 -24 21 -7 61 8 61
23 0 11 -5 12 -26 5 -14 -6 -30 -8 -35 -4 -17 10 2 24 32 24 28 0 30 2 25 28
-2 15 -8 54 -11 87 -4 33 -12 66 -17 73 -13 15 -54 16 -63 2z m35 -37 c0 -16
3 -53 6 -83 5 -37 3 -52 -4 -45 -11 11 -32 142 -24 150 13 12 22 3 22 -22z"/>
<path d="M13395 2530 c-3 -5 1 -10 9 -10 9 0 16 5 16 10 0 6 -4 10 -9 10 -6 0
-13 -4 -16 -10z"/>
<path d="M10217 2516 c-12 -12 -12 -29 -1 -113 7 -54 13 -104 14 -110 0 -15
48 -17 69 -4 11 7 11 25 1 102 -6 52 -16 104 -21 117 -10 25 -40 29 -62 8z
m28 -34 c1 -9 5 -43 9 -74 5 -39 4 -58 -3 -58 -6 0 -11 3 -11 8 0 4 -5 35 -10
70 -6 35 -8 68 -4 73 8 13 17 4 19 -19z m45 -167 c0 -8 -9 -15 -20 -15 -11 0
-20 7 -20 15 0 8 9 15 20 15 11 0 20 -7 20 -15z"/>
<path d="M13350 2520 c0 -5 7 -10 15 -10 8 0 15 5 15 10 0 6 -7 10 -15 10 -8
0 -15 -4 -15 -10z"/>
<path d="M8051 2504 c0 -11 3 -14 6 -6 3 7 2 16 -1 19 -3 4 -6 -2 -5 -13z"/>
<path d="M13218 2513 c-16 -2 -28 -9 -28 -14 0 -14 83 -5 88 9 4 12 -8 13 -60
5z"/>
<path d="M10058 2503 c-27 -7 -29 -33 -13 -142 8 -55 15 -102 15 -104 0 -1 18
-1 40 1 39 4 40 5 35 36 -2 17 -9 67 -15 110 -9 73 -22 108 -39 105 -3 -1 -14
-3 -23 -6z m20 -95 c10 -70 7 -104 -8 -77 -13 23 -23 149 -13 149 5 0 14 -32
21 -72z m42 -119 c0 -5 -11 -9 -25 -9 -28 0 -34 16 -7 23 20 4 32 -1 32 -14z"/>
<path d="M13157 2503 c-11 -11 -8 -20 8 -20 8 0 15 6 15 14 0 14 -12 17 -23 6z"/>
<path d="M16040 2500 c-8 -5 -12 -12 -9 -15 4 -3 12 1 19 10 14 17 11 19 -10
5z"/>
<path d="M9720 2491 c0 -14 48 -42 55 -32 10 18 -7 41 -31 41 -13 0 -24 -4
-24 -9z"/>
<path d="M7947 2455 c-20 -14 -43 -25 -51 -25 -9 0 -16 -4 -16 -10 0 -5 -7
-10 -15 -10 -9 0 -26 -6 -38 -14 -26 -16 -274 -41 -312 -32 -28 7 -75 -2 -75
-14 0 -7 104 -177 114 -187 6 -6 321 38 324 45 1 4 27 65 57 137 30 71 53 130
52 132 -2 1 -20 -9 -40 -22z"/>
<path d="M9864 2456 c-3 -14 -1 -47 4 -73 l11 -48 -2 59 c-3 81 18 86 27 6 4
-34 10 -69 13 -77 5 -13 2 -15 -15 -11 -18 5 -22 2 -22 -17 0 -22 3 -23 35
-18 23 4 35 2 35 -6 0 -10 -7 -12 -50 -15 -8 -1 -14 -6 -12 -11 3 -10 59 -11
69 -1 4 3 0 57 -8 118 l-14 113 -32 3 c-28 3 -33 -1 -39 -22z"/>
<path d="M8055 2460 c3 -5 8 -10 11 -10 2 0 4 5 4 10 0 6 -5 10 -11 10 -5 0
-7 -4 -4 -10z"/>
<path d="M8305 2419 c-66 -5 -137 -12 -158 -16 l-38 -8 66 -72 c65 -71 68 -73
113 -73 47 0 47 0 162 -120 l115 -121 270 36 c149 20 274 37 278 38 4 1 -147
80 -336 175 -189 94 -346 171 -348 170 -2 0 -58 -5 -124 -9z"/>
<path d="M12815 2410 c-8 -14 3 -30 21 -30 8 0 14 9 14 20 0 21 -24 28 -35 10z"/>
<path d="M12760 2390 c0 -11 6 -20 13 -20 19 0 27 10 20 26 -8 21 -33 17 -33
-6z"/>
<path d="M12702 2383 c5 -26 38 -29 38 -4 0 15 -6 21 -21 21 -14 0 -19 -5 -17
-17z"/>
<path d="M13418 2373 c-32 -2 -58 -9 -58 -14 0 -6 5 -53 12 -105 l11 -94 31 4
c93 14 106 18 101 26 -3 5 -19 5 -38 -1 -58 -16 -64 -13 -71 39 -4 26 -9 63
-12 83 l-5 37 45 -2 c31 -1 47 3 51 12 7 18 6 22 -2 20 -5 -1 -34 -3 -65 -5z"/>
<path d="M12040 2359 c0 -5 5 -7 10 -4 6 3 10 8 10 11 0 2 -4 4 -10 4 -5 0
-10 -5 -10 -11z"/>
<path d="M12190 2360 c-12 -8 -12 -10 3 -16 21 -8 35 2 21 16 -5 5 -15 6 -24
0z"/>
<path d="M12767 2340 c-27 -5 -50 -10 -51 -12 -2 -2 7 -69 18 -150 l20 -148
56 7 c80 9 79 9 85 15 5 5 -11 142 -31 266 -5 35 -10 36 -97 22z"/>
<path d="M13315 2340 c-4 -6 -10 -8 -15 -5 -4 3 -29 1 -54 -4 -31 -6 -46 -5
-46 2 0 8 -3 8 -11 0 -7 -7 -6 -38 5 -103 16 -97 19 -106 34 -96 6 3 7 21 2
43 -18 89 -20 115 -5 109 8 -3 17 -1 20 4 4 6 17 10 30 10 13 0 26 6 28 13 4
9 8 8 16 -3 13 -19 37 1 28 24 -7 18 -23 21 -32 6z"/>
<path d="M11114 2324 c-17 -14 -17 -15 -1 -10 10 3 23 6 28 6 5 0 9 5 9 10 0
14 -13 12 -36 -6z"/>
<path d="M13027 2323 c-2 -5 1 -47 8 -96 15 -114 28 -125 118 -100 11 3 16 11
13 21 -3 9 -8 40 -11 67 -13 108 -15 115 -35 115 -11 0 -20 -5 -20 -11 0 -6 6
-9 14 -6 9 4 15 -6 20 -31 3 -23 1 -38 -5 -41 -7 -2 -8 -6 -2 -10 6 -3 13 -19
17 -34 5 -22 3 -28 -6 -25 -7 3 -17 22 -22 44 -26 117 -25 114 -56 114 -16 0
-31 -3 -33 -7z"/>
<path d="M10928 2306 c-36 -6 -69 -13 -71 -16 -3 -3 10 -117 29 -255 18 -137
34 -262 34 -276 0 -31 -16 -36 -152 -46 -62 -4 -88 -10 -88 -19 0 -8 -19 -15
-47 -19 -27 -4 -70 -10 -98 -15 -27 -5 -53 -5 -57 -2 -3 4 -16 90 -29 192 -12
102 -25 188 -29 193 -5 6 -93 -4 -344 -39 l-48 -7 7 -66 c4 -36 15 -124 25
-196 14 -93 16 -131 8 -136 -15 -9 -183 -24 -235 -20 -55 4 -83 -6 -83 -29 0
-10 3 -21 8 -23 4 -3 48 1 97 8 50 7 113 16 140 19 28 3 151 20 275 36 124 17
278 37 342 45 143 17 207 25 233 30 63 9 106 15 160 20 32 4 62 8 65 10 3 2
34 6 70 10 36 3 94 11 130 16 36 5 105 14 153 19 101 11 107 14 107 41 0 24
-18 24 -203 0 -132 -17 -207 -23 -317 -25 l-45 -1 -6 55 c-4 30 -9 100 -13
155 -3 55 -8 141 -12 190 -7 109 -2 117 81 144 59 19 59 19 20 19 -22 -1 -70
-6 -107 -12z"/>
<path d="M12486 2311 c-8 -12 3 -41 15 -41 5 0 9 11 9 25 0 25 -14 34 -24 16z"/>
<path d="M12429 2305 c-3 -2 -23 -6 -45 -7 -21 -2 -39 -8 -39 -13 0 -6 6 -56
14 -112 10 -75 17 -103 27 -103 17 0 17 -5 -1 104 -14 87 -12 122 6 95 8 -12
12 -11 23 3 9 12 16 14 23 7 14 -14 33 -3 33 17 0 13 -31 20 -41 9z"/>
<path d="M13329 2283 c-1 -5 -1 -12 0 -17 2 -7 9 -67 13 -103 1 -7 5 -13 11
-13 5 0 7 25 3 58 -3 31 -5 63 -5 70 -1 13 -20 17 -22 5z"/>
<path d="M12496 2251 c-8 -12 3 -41 15 -41 12 0 12 37 0 45 -5 3 -12 1 -15 -4z"/>
<path d="M13285 2240 c-3 -5 1 -10 9 -10 9 0 16 5 16 10 0 6 -4 10 -9 10 -6 0
-13 -4 -16 -10z"/>
<path d="M12445 2230 c-9 -15 3 -30 20 -24 7 3 11 12 8 20 -6 16 -19 18 -28 4z"/>
<path d="M12080 2220 c0 -5 5 -10 11 -10 5 0 7 5 4 10 -3 6 -8 10 -11 10 -2 0
-4 -4 -4 -10z"/>
<path d="M12400 2215 c0 -8 5 -15 10 -15 6 0 10 7 10 15 0 8 -4 15 -10 15 -5
0 -10 -7 -10 -15z"/>
<path d="M12061 2194 c0 -11 3 -14 6 -6 3 7 2 16 -1 19 -3 4 -6 -2 -5 -13z"/>
<path d="M13285 2190 c3 -5 10 -10 16 -10 5 0 9 5 9 10 0 6 -7 10 -16 10 -8 0
-12 -4 -9 -10z"/>
<path d="M10475 2180 l-40 -7 43 -2 c23 0 42 4 42 9 0 6 -1 9 -2 9 -2 -1 -21
-5 -43 -9z"/>
<path d="M10538 2183 c7 -3 16 -2 19 1 4 3 -2 6 -13 5 -11 0 -14 -3 -6 -6z"/>
<path d="M12090 2174 c0 -8 5 -12 10 -9 6 4 8 11 5 16 -9 14 -15 11 -15 -7z"/>
<path d="M12502 2174 c1 -9 9 -19 16 -22 9 -3 13 2 10 14 -1 9 -9 19 -16 22
-9 3 -13 -2 -10 -14z"/>
<path d="M11034 2169 c-3 -6 -1 -16 5 -22 8 -8 11 -5 11 11 0 24 -5 28 -16 11z"/>
<path d="M12450 2163 c0 -7 7 -13 15 -13 8 0 15 6 15 13 0 8 -7 14 -15 14 -8
0 -15 -6 -15 -14z"/>
<path d="M8012 2153 c-6 -11 -5 -54 3 -113 26 -191 26 -190 11 -190 -7 0 -19
-7 -26 -15 -15 -18 -10 -18 117 -2 51 7 91 17 90 22 -1 6 -15 10 -32 10 l-30
0 -20 140 c-11 77 -24 146 -28 153 -13 19 -75 15 -85 -5z m53 -60 c4 -32 11
-77 15 -101 6 -36 5 -44 -11 -52 -10 -6 -20 -7 -22 -3 -9 15 -28 193 -22 203
3 5 12 10 20 10 9 0 16 -19 20 -57z m15 -214 c0 -20 -15 -26 -25 -9 -9 15 3
43 15 35 5 -3 10 -15 10 -26z"/>
<path d="M10383 2163 c9 -2 23 -2 30 0 6 3 -1 5 -18 5 -16 0 -22 -2 -12 -5z"/>
<path d="M10964 2129 c4 -24 9 -64 12 -89 8 -67 12 -74 28 -61 11 9 12 21 5
53 -6 22 -11 61 -13 87 -2 35 -7 47 -21 50 -16 3 -17 -2 -11 -40z"/>
<path d="M12410 2154 c0 -8 5 -12 10 -9 6 4 8 11 5 16 -9 14 -15 11 -15 -7z"/>
<path d="M10160 2139 c-152 -22 -185 -29 -105 -22 97 8 314 41 270 41 -22 0
-96 -9 -165 -19z"/>
<path d="M13308 2153 c7 -3 16 -2 19 1 4 3 -2 6 -13 5 -11 0 -14 -3 -6 -6z"/>
<path d="M13500 2126 c0 -14 5 -28 10 -31 6 -4 10 7 10 24 0 17 -4 31 -10 31
-5 0 -10 -11 -10 -24z"/>
<path d="M12510 2121 c0 -20 13 -35 23 -25 7 8 -4 44 -14 44 -5 0 -9 -9 -9
-19z"/>
<path d="M13424 2125 c-4 -8 -4 -22 0 -30 6 -17 36 -21 36 -5 0 6 -4 10 -10
10 -5 0 -10 5 -10 11 0 5 5 7 10 4 6 -3 10 1 10 9 0 20 -29 21 -36 1z"/>
<path d="M12460 2110 c0 -11 7 -20 15 -20 8 0 15 9 15 20 0 11 -7 20 -15 20
-8 0 -15 -9 -15 -20z"/>
<path d="M13350 2120 c0 -5 5 -10 10 -10 6 0 10 5 10 10 0 6 -4 10 -10 10 -5
0 -10 -4 -10 -10z"/>
<path d="M9940 2110 l-35 -7 37 -2 c20 0 40 4 43 9 7 11 7 11 -45 0z"/>
<path d="M12422 2100 c0 -14 2 -19 5 -12 2 6 2 18 0 25 -3 6 -5 1 -5 -13z"/>
<path d="M13298 2113 c7 -3 16 -2 19 1 4 3 -2 6 -13 5 -11 0 -14 -3 -6 -6z"/>
<path d="M10777 2102 c-9 -2 -15 -8 -12 -13 8 -12 45 -12 45 0 0 13 -12 18
-33 13z"/>
<path d="M13215 2100 c4 -6 11 -8 16 -5 14 9 11 15 -7 15 -8 0 -12 -5 -9 -10z"/>
<path d="M9790 2090 c0 -5 5 -10 11 -10 5 0 7 5 4 10 -3 6 -8 10 -11 10 -2 0
-4 -4 -4 -10z"/>
<path d="M9820 2090 c0 -5 5 -10 10 -10 6 0 10 5 10 10 0 6 -4 10 -10 10 -5 0
-10 -4 -10 -10z"/>
<path d="M9858 2093 c6 -2 18 -2 25 0 6 3 1 5 -13 5 -14 0 -19 -2 -12 -5z"/>
<path d="M10706 2092 c-16 -3 -17 -10 -11 -60 4 -32 11 -85 14 -119 8 -69 13
-78 37 -69 13 5 15 14 10 49 -10 63 -17 118 -19 159 -2 42 -5 46 -31 40z"/>
<path d="M13085 2091 c-3 -6 -3 -38 1 -72 l7 -61 56 7 c31 4 58 9 60 11 3 3
-3 18 -12 33 -9 16 -17 43 -17 60 0 25 -4 31 -20 31 -19 0 -20 -4 -14 -36 5
-29 4 -36 -7 -32 -8 3 -16 17 -19 33 -5 30 -24 43 -35 26z"/>
<path d="M13360 2080 c0 -5 4 -10 9 -10 6 0 13 5 16 10 3 6 -1 10 -9 10 -9 0
-16 -4 -16 -10z"/>
<path d="M7401 2064 c0 -11 3 -14 6 -6 3 7 2 16 -1 19 -3 4 -6 -2 -5 -13z"/>
<path d="M13290 2070 c0 -5 4 -10 9 -10 6 0 13 5 16 10 3 6 -1 10 -9 10 -9 0
-16 -4 -16 -10z"/>
<path d="M13220 2060 c0 -5 4 -10 9 -10 6 0 13 5 16 10 3 6 -1 10 -9 10 -9 0
-16 -4 -16 -10z"/>
<path d="M7778 2041 c-26 -4 -50 -9 -53 -12 -2 -3 -1 -39 5 -80 5 -41 10 -82
10 -91 0 -20 26 -23 93 -12 23 4 37 12 37 22 0 12 -3 12 -15 2 -20 -17 -45 -5
-45 21 0 17 5 20 25 17 20 -4 25 -1 25 16 0 16 -2 18 -9 7 -6 -9 -18 -11 -34
-7 -28 7 -48 -11 -27 -24 16 -10 9 -45 -10 -45 -10 0 -15 10 -15 27 -1 15 -4
30 -8 34 -4 4 -7 18 -7 31 0 27 25 31 35 6 6 -16 8 -15 16 5 10 26 34 29 48 5
8 -14 9 -8 5 22 -7 52 -12 65 -21 64 -4 -1 -29 -5 -55 -8z m56 -20 c3 -5 -1
-12 -10 -15 -20 -8 -29 -1 -19 13 8 13 22 14 29 2z m-59 -11 c3 -5 -3 -10 -14
-10 -12 0 -21 5 -21 10 0 6 6 10 14 10 8 0 18 -4 21 -10z"/>
<path d="M7396 2013 c-6 -14 -5 -15 5 -6 7 7 10 15 7 18 -3 3 -9 -2 -12 -12z"/>
<path d="M9040 1995 c0 -18 1 -18 36 0 l29 15 -32 0 c-23 0 -33 -5 -33 -15z"/>
<path d="M4454 1980 c-20 -8 -20 -10 -8 -82 7 -40 13 -90 14 -110 0 -20 5 -49
10 -63 9 -24 14 -26 43 -20 17 4 33 8 34 9 1 1 -4 38 -12 81 l-14 80 4 -72 c5
-72 5 -73 -19 -73 -22 0 -24 5 -30 63 -4 34 -10 84 -13 111 -3 34 -1 51 8 57
15 9 42 -9 33 -22 -3 -5 0 -17 5 -26 9 -15 10 -13 11 14 0 60 -16 74 -66 53z"/>
<path d="M7523 1973 c-13 -2 -23 -6 -23 -9 0 -2 28 -48 62 -101 33 -54 75
-120 91 -146 28 -45 33 -48 61 -43 75 13 688 93 729 95 39 1 34 12 -18 40 -43
23 -48 23 -133 12 -48 -6 -188 -25 -312 -41 -123 -17 -232 -30 -241 -30 -9 0
-51 49 -99 115 -45 63 -85 114 -89 114 -3 -1 -16 -4 -28 -6z"/>
<path d="M4547 1900 c3 -30 7 -57 9 -59 7 -8 2 64 -6 89 -6 16 -7 6 -3 -30z"/>
<path d="M4370 1914 c0 -14 4 -23 9 -20 5 3 7 15 4 26 -7 28 -13 25 -13 -6z"/>
<path d="M10822 1915 c0 -16 2 -22 5 -12 2 9 2 23 0 30 -3 6 -5 -1 -5 -18z"/>
<path d="M7482 1848 c-6 -29 -20 -91 -31 -138 -11 -46 -19 -86 -18 -87 2 -1
47 5 101 13 89 13 118 13 105 -1 -3 -2 -46 -10 -95 -17 -85 -12 -89 -14 -89
-38 0 -19 4 -24 20 -22 11 2 25 10 31 18 10 12 12 12 17 1 7 -19 57 -10 57 10
0 12 3 13 15 3 27 -22 49 -8 52 35 2 33 -8 55 -64 145 -90 143 -87 140 -101
78z"/>
<path d="M8910 1846 c-3 -2 -52 -10 -110 -17 -58 -6 -110 -16 -116 -20 -7 -6
-4 -53 12 -161 15 -108 19 -157 12 -166 -6 -7 -8 -15 -5 -18 2 -3 75 4 160 15
85 12 160 21 167 21 8 0 9 6 5 18 -4 9 -17 87 -29 172 l-21 155 -35 3 c-20 2
-38 1 -40 -2z m2 -51 c6 -29 4 -32 -37 -36 -27 -4 -30 -1 -33 29 -3 30 -2 32
31 32 29 0 35 -4 39 -25z m62 -17 c-7 -11 -44 -10 -44 2 0 16 34 30 42 17 4
-6 4 -15 2 -19z m-154 -15 c0 -8 -13 -13 -30 -13 -34 0 -41 19 -10 27 11 3 20
10 20 17 0 15 20 -16 20 -31z m163 -30 c6 -32 -5 -48 -27 -40 -19 8 -21 53 -3
60 22 9 25 7 30 -20z m-63 3 c0 -8 3 -21 6 -30 4 -11 -4 -18 -28 -25 l-33 -9
31 -1 c27 -1 32 -5 38 -33 8 -39 -3 -51 -40 -46 -28 3 -29 6 -37 67 -4 36 -6
70 -3 78 7 18 66 17 66 -1z m-92 -34 c3 -30 1 -32 -27 -32 -28 0 -31 3 -31 29
0 20 6 31 18 34 29 8 37 2 40 -31z m166 -54 c7 -35 -5 -54 -28 -45 -16 6 -23
57 -9 70 15 16 31 5 37 -25z m-151 -25 c4 -20 5 -38 4 -39 -1 -1 -16 -4 -32
-6 -26 -3 -30 0 -33 25 -5 41 4 57 31 57 20 0 25 -6 30 -37z m165 -66 c2 -15
-1 -28 -7 -28 -30 -5 -34 -2 -38 20 -3 24 13 44 32 38 6 -2 11 -16 13 -30z
m-63 -8 c9 -26 6 -28 -36 -31 -31 -3 -34 0 -37 25 -3 25 -1 27 32 27 26 0 36
-5 41 -21z m-92 -11 c7 -25 -8 -39 -38 -36 -14 2 -21 12 -23 31 -3 24 0 27 26
27 22 0 31 -6 35 -22z"/>
<path d="M4563 1795 c0 -22 2 -30 4 -17 2 12 2 30 0 40 -3 9 -5 -1 -4 -23z"/>
<path d="M3297 1773 c-4 -3 -7 -19 -7 -34 0 -35 34 -45 61 -18 15 15 17 24 9
39 -10 19 -49 27 -63 13z"/>
<path d="M8212 1683 c-8 -3 -10 -9 -4 -16 6 -7 17 -66 26 -131 16 -117 20
-135 31 -124 7 7 -25 261 -33 269 -4 4 -13 4 -20 2z"/>
<path d="M910 1642 c0 -24 31 -246 35 -250 3 -3 247 29 253 33 7 6 -21 162
-31 172 -7 7 -26 14 -43 16 -16 2 -36 7 -43 11 -7 4 -15 6 -17 3 -3 -3 -37 4
-77 14 -40 10 -73 19 -74 19 -2 0 -3 -8 -3 -18z"/>
<path d="M3322 1589 c-77 -16 -117 -95 -117 -231 0 -47 3 -90 7 -94 7 -7 271
21 312 33 46 13 -19 217 -84 263 -40 29 -78 38 -118 29z m57 -151 c0 -28 -2
-30 -9 -13 -12 28 -12 45 0 45 6 0 10 -15 9 -32z m-46 -5 c5 -26 2 -42 -7 -32
-9 11 -15 59 -7 59 5 0 11 -12 14 -27z m-56 -20 c-3 -10 -5 -4 -5 12 0 17 2
24 5 18 2 -7 2 -21 0 -30z m115 -63 c3 -17 1 -33 -4 -36 -4 -3 -8 4 -8 15 0
10 -3 26 -6 35 -3 9 -2 16 4 16 5 0 12 -14 14 -30z m-49 -7 c5 -26 2 -42 -7
-32 -9 11 -15 59 -7 59 5 0 11 -12 14 -27z"/>
<path d="M1209 1585 c-3 -2 -1 -38 5 -80 l9 -77 57 7 c64 7 61 11 75 -87 8
-51 8 -50 -68 -64 -40 -7 -49 -14 -39 -31 5 -7 60 -4 186 13 98 13 180 25 181
26 5 6 -23 200 -29 206 -4 3 -16 7 -27 9 -11 2 -92 21 -179 43 -175 44 -165
42 -171 35z"/>
<path d="M9310 1535 c0 -8 4 -15 10 -15 5 0 7 7 4 15 -4 8 -8 15 -10 15 -2 0
-4 -7 -4 -15z"/>
<path d="M9321 1494 c0 -11 3 -14 6 -6 3 7 2 16 -1 19 -3 4 -6 -2 -5 -13z"/>
<path d="M8106 1440 c6 -6 21 -6 39 -1 30 9 30 9 -9 10 -26 1 -37 -2 -30 -9z"/>
<path d="M8135 1400 c-3 -5 1 -10 9 -10 8 0 18 5 21 10 3 6 -1 10 -9 10 -8 0
-18 -4 -21 -10z"/>
<path d="M8158 1362 c-36 -7 -17 -23 25 -21 50 3 67 8 67 20 0 8 -56 9 -92 1z"/>
<path d="M2955 1140 c-3 -5 -2 -10 4 -10 5 0 13 5 16 10 3 6 2 10 -4 10 -5 0
-13 -4 -16 -10z"/>
<path d="M2861 1114 c0 -11 3 -14 6 -6 3 7 2 16 -1 19 -3 4 -6 -2 -5 -13z"/>
</g>
</svg>
